<svg width="30" height="54" viewBox="0 0 30 54" fill="none" xmlns="http://www.w3.org/2000/svg">
<path d="M20.4173 18.9075C21.4331 18.9075 22.2565 18.0841 22.2565 17.0683C22.2565 16.0525 21.4331 15.229 20.4173 15.229H15.6434C15.0013 12.5443 12.5836 10.5418 9.70361 10.5418C6.33523 10.5418 3.59566 13.2814 3.59566 16.6498V37.9538C1.88318 39.6036 0.917236 41.8602 0.917236 44.271C0.917236 49.1163 4.85833 53.0574 9.70361 53.0574C14.5489 53.0574 18.49 49.1163 18.49 44.271C18.49 41.8601 17.524 39.6036 15.8116 37.9538V35.6476H17.0693C18.0851 35.6476 18.9085 34.8242 18.9085 33.8084C18.9085 32.7926 18.0851 31.9692 17.0693 31.9692H15.8116V27.2775H18.7433C19.7591 27.2775 20.5825 26.4541 20.5825 25.4383C20.5825 24.4225 19.7591 23.5991 18.7433 23.5991H15.8116V18.9075H20.4173Z" fill="black" stroke="white"/>
<path d="M13.1954 39.8465C14.5697 40.9175 15.3578 42.5301 15.3578 44.271C15.3578 47.3632 12.8421 49.8789 9.74986 49.8789C6.65762 49.8789 4.14191 47.3632 4.14191 44.271C4.14191 42.5301 4.93003 40.9175 6.30432 39.8465C6.63 39.5929 6.82033 39.2031 6.82033 38.7902V16.6497C6.82033 15.0344 8.13452 13.7202 9.74986 13.7202C11.3652 13.7202 12.6794 15.0344 12.6794 16.6497V27.72V38.7902C12.6794 39.2031 12.8697 39.5929 13.1954 39.8465Z" fill="white"/>
<path d="M9.74964 47.2588C11.4573 47.2588 12.8466 45.8696 12.8466 44.1619C12.8466 42.9336 12.1278 41.8702 11.0889 41.3698V24.5759C11.0889 23.8363 10.4893 23.2367 9.74964 23.2367C9.00998 23.2367 8.41043 23.8363 8.41043 24.5759V41.3698C7.37145 41.8702 6.65271 42.9336 6.65271 44.1619C6.65271 45.8696 8.04198 47.2588 9.74964 47.2588Z" fill="#0BA2E3"/>
<path d="M15.295 4.84165C15.295 4.49355 15.3808 4.17562 15.5526 3.88786C15.7243 3.59545 15.954 3.36339 16.2418 3.19166C16.5296 3.01993 16.8452 2.93407 17.1886 2.93407C17.5274 2.93407 17.8384 3.01993 18.1215 3.19166C18.4047 3.36339 18.6298 3.59545 18.7968 3.88786C18.9639 4.17562 19.0475 4.49355 19.0475 4.84165C19.0475 5.18975 18.9639 5.50768 18.7968 5.79544C18.6298 6.07856 18.4047 6.30366 18.1215 6.47075C17.8384 6.63784 17.5274 6.72138 17.1886 6.72138C16.8452 6.72138 16.5296 6.63784 16.2418 6.47075C15.954 6.30366 15.7243 6.07856 15.5526 5.79544C15.3808 5.50768 15.295 5.18975 15.295 4.84165ZM16.2975 4.84165C16.2975 5.09228 16.3857 5.30114 16.5621 5.46823C16.7384 5.63531 16.9473 5.71886 17.1886 5.71886C17.43 5.71886 17.6319 5.63531 17.7943 5.46823C17.9568 5.30114 18.038 5.09228 18.038 4.84165C18.038 4.58638 17.9568 4.37288 17.7943 4.20115C17.6319 4.02942 17.43 3.94355 17.1886 3.94355C16.9473 3.94355 16.7384 4.02942 16.5621 4.20115C16.3857 4.37288 16.2975 4.58638 16.2975 4.84165ZM26.7405 9.84731H28.8221C28.7803 10.5296 28.5923 11.1353 28.2582 11.6644C27.9286 12.1935 27.4668 12.6066 26.8727 12.9036C26.2833 13.2007 25.5732 13.3492 24.7424 13.3492C24.0926 13.3492 23.5101 13.2378 22.9949 13.015C22.4797 12.7876 22.0388 12.4627 21.6721 12.0403C21.3101 11.618 21.034 11.1074 20.8437 10.5087C20.6534 9.90997 20.5582 9.2393 20.5582 8.49669V7.79353C20.5582 7.05092 20.6557 6.38025 20.8506 5.78152C21.0502 5.17814 21.3333 4.66528 21.7 4.24292C22.0713 3.82056 22.5145 3.49567 23.0297 3.26824C23.5449 3.04082 24.1204 2.9271 24.7563 2.9271C25.601 2.9271 26.3135 3.08027 26.8936 3.3866C27.4784 3.69292 27.931 4.11528 28.2512 4.65368C28.5761 5.19207 28.771 5.80472 28.836 6.49164H26.7474C26.7242 6.0832 26.643 5.73742 26.5038 5.4543C26.3645 5.16654 26.1533 4.95072 25.8702 4.80684C25.5917 4.65832 25.2204 4.58406 24.7563 4.58406C24.4082 4.58406 24.1042 4.64903 23.8443 4.77899C23.5844 4.90895 23.3662 5.1062 23.1899 5.37076C23.0135 5.63531 22.8812 5.96949 22.793 6.37328C22.7095 6.77244 22.6677 7.24121 22.6677 7.7796V8.49669C22.6677 9.02116 22.7072 9.48297 22.7861 9.88212C22.865 10.2766 22.9856 10.6108 23.1481 10.8846C23.3152 11.1538 23.5287 11.3581 23.7886 11.4973C24.0531 11.6319 24.3711 11.6992 24.7424 11.6992C25.1787 11.6992 25.5384 11.6296 25.8215 11.4903C26.1046 11.3511 26.3204 11.1446 26.4689 10.8707C26.6221 10.5969 26.7126 10.2557 26.7405 9.84731Z" fill="#0BA2E3"/>
</svg>
