<svg width="34" height="43" viewBox="0 0 34 43" fill="none" xmlns="http://www.w3.org/2000/svg">
<path d="M17.0639 6.09429L7.97151 15.65C6.17342 17.5399 4.94895 19.9477 4.45293 22.569C3.95691 25.1902 4.21162 27.9072 5.18485 30.3763C6.15807 32.8455 7.80611 34.9558 9.92056 36.4406C12.035 37.9254 14.5209 38.7179 17.0639 38.7179C19.6069 38.7179 22.0928 37.9254 24.2073 36.4406C26.3217 34.9558 27.9698 32.8455 28.943 30.3763C29.9162 27.9072 30.1709 25.1902 29.6749 22.569C29.1789 19.9477 27.9544 17.5399 26.1563 15.65L17.0639 6.09429ZM17.0639 0.634979L28.7536 12.9204C31.0656 15.3502 32.6401 18.4459 33.2779 21.8162C33.9158 25.1864 33.5884 28.6797 32.3372 31.8544C31.0859 35.0291 28.967 37.7425 26.2484 39.6516C23.5298 41.5607 20.3336 42.5796 17.0639 42.5796C13.7943 42.5796 10.5981 41.5607 7.87945 39.6516C5.16083 37.7425 3.04193 35.0291 1.79068 31.8544C0.539433 28.6797 0.21204 25.1864 0.849901 21.8162C1.48776 18.4459 3.06223 15.3502 5.3742 12.9204L17.0639 0.634979Z" fill="#0BA2E3"/>
<path d="M17.064 6.07449L7.97154 15.6302C6.17346 17.5201 4.94899 19.9279 4.45297 22.5492C3.95694 25.1704 4.21165 27.8874 5.18488 30.3565C6.15811 32.8257 7.80614 34.936 9.92059 36.4208C12.035 37.9056 14.5209 38.6981 17.064 38.6981C19.607 38.6981 22.0929 37.9056 24.2073 36.4208C26.3218 34.936 27.9698 32.8257 28.943 30.3565C29.9163 27.8874 30.171 25.1704 29.6749 22.5492C29.1789 19.9279 27.9545 17.5201 26.1564 15.6302L17.064 6.07449Z" fill="white"/>
</svg>
