<svg width="15" height="9" viewBox="0 0 15 9" fill="none" xmlns="http://www.w3.org/2000/svg">
<path d="M14.1825 1.52096C14.1825 1.46443 14.1825 1.35139 14.126 1.29486C14.0694 1.18181 13.9564 1.06876 13.8433 1.01224C13.7868 0.955712 13.6738 0.955711 13.6172 0.955711H10.2257C9.8866 0.955711 9.6605 1.18181 9.6605 1.52096C9.6605 1.86011 9.8866 2.08621 10.2257 2.08621H12.2606L8.24738 6.09947L5.81682 3.6689C5.59072 3.4428 5.25157 3.4428 5.02548 3.6689L0.786121 7.90826C0.560022 8.13436 0.560022 8.47351 0.786121 8.6996C1.01222 8.9257 1.35137 8.9257 1.57747 8.6996L5.42115 4.85592L7.85171 7.28649C8.07781 7.51258 8.41696 7.51258 8.64306 7.28649L13.052 2.87755V4.91245C13.052 5.25159 13.2781 5.47769 13.6172 5.47769C13.9564 5.47769 14.1825 5.25159 14.1825 4.91245V1.52096Z" fill="#E30B3F"/>
</svg>
