<svg width="15" height="9" viewBox="0 0 15 9" fill="none" xmlns="http://www.w3.org/2000/svg">
<path d="M0.81749 8.304C0.81749 8.36052 0.81749 8.47357 0.874014 8.53009C0.930539 8.64314 1.04359 8.75619 1.15664 8.81272C1.21316 8.86924 1.32621 8.86924 1.38274 8.86924H4.77422C5.11337 8.86924 5.33947 8.64314 5.33947 8.304C5.33947 7.96485 5.11337 7.73875 4.77422 7.73875H2.73933L6.75258 3.7255L9.18315 6.15606C9.40925 6.38216 9.7484 6.38216 9.97449 6.15606L14.2138 1.91671C14.4399 1.69061 14.4399 1.35146 14.2138 1.12536C13.9877 0.899266 13.6486 0.899266 13.4225 1.12536L9.57882 4.96904L7.14826 2.53848C6.92216 2.31238 6.58301 2.31238 6.35691 2.53848L1.94798 6.9474V4.91252C1.94798 4.57337 1.72188 4.34727 1.38274 4.34727C1.04359 4.34727 0.81749 4.57337 0.81749 4.91252V8.304Z" fill="#2D56EA"/>
</svg>
