<svg width="25" height="24" viewBox="0 0 25 24" fill="none" xmlns="http://www.w3.org/2000/svg">
<path d="M15.3776 12L20.948 6.42956C21.7426 5.63494 21.7426 4.34663 20.948 3.55202C20.1533 2.7574 18.8651 2.7574 18.0705 3.55202L12.5 9.12247L6.92956 3.55202C6.13494 2.7574 4.84663 2.7574 4.05202 3.55202C3.2574 4.34663 3.2574 5.63494 4.05202 6.42956L9.62247 12L4.05202 17.5705C3.2574 18.3651 3.2574 19.6534 4.05202 20.448C4.44933 20.8453 4.97005 21.044 5.49077 21.044C6.01149 21.044 6.53225 20.8453 6.92951 20.448L12.5 14.8776L18.0705 20.448C18.4678 20.8453 18.9885 21.044 19.5092 21.044C20.0299 21.044 20.5507 20.8453 20.948 20.448C21.7426 19.6534 21.7426 18.3651 20.948 17.5705L15.3776 12Z" fill="#F67F7F"/>
</svg>
