<svg width="32" height="32" viewBox="0 0 32 32" fill="none" xmlns="http://www.w3.org/2000/svg">
<path fill-rule="evenodd" clip-rule="evenodd" d="M7.5 7C7.22386 7 7 7.22386 7 7.5V20H11.5C11.8788 20 12.225 20.214 12.3944 20.5528L13.118 22H18.882L19.6056 20.5528C19.775 20.214 20.1212 20 20.5 20H25V7.5C25 7.22386 24.7761 7 24.5 7H7.5ZM27 7.5C27 6.11929 25.8807 5 24.5 5H7.5C6.11929 5 5 6.11929 5 7.5V24.5C5 25.8807 6.11929 27 7.5 27H24.5C25.8807 27 27 25.8807 27 24.5V7.5ZM25 22H21.118L20.3944 23.4472C20.225 23.786 19.8788 24 19.5 24H12.5C12.1212 24 11.775 23.786 11.6056 23.4472L10.882 22H7V24.5C7 24.7761 7.22386 25 7.5 25H24.5C24.7761 25 25 24.7761 25 24.5V22ZM16 9C16.5523 9 17 9.44772 17 10V16.5858L19.2929 14.2929C19.6834 13.9024 20.3166 13.9024 20.7071 14.2929C21.0976 14.6834 21.0976 15.3166 20.7071 15.7071L16.7071 19.7071C16.3166 20.0976 15.6834 20.0976 15.2929 19.7071L11.2929 15.7071C10.9024 15.3166 10.9024 14.6834 11.2929 14.2929C11.6834 13.9024 12.3166 13.9024 12.7071 14.2929L15 16.5858V10C15 9.44772 15.4477 9 16 9Z" fill="black" fill-opacity="0.65"/>
<path fill-rule="evenodd" clip-rule="evenodd" d="M7 7.5C7 7.22386 7.22386 7 7.5 7H24.5C24.7761 7 25 7.22386 25 7.5V20H20.5C20.1212 20 19.775 20.214 19.6056 20.5528L18.882 22H13.118L12.3944 20.5528C12.225 20.214 11.8788 20 11.5 20H7V7.5ZM16 9C16.5523 9 17 9.44772 17 10V16.5858L19.2929 14.2929C19.6834 13.9024 20.3166 13.9024 20.7071 14.2929C21.0976 14.6834 21.0976 15.3166 20.7071 15.7071L16.7071 19.7071C16.3166 20.0976 15.6834 20.0976 15.2929 19.7071L11.2929 15.7071C10.9024 15.3166 10.9024 14.6834 11.2929 14.2929C11.6834 13.9024 12.3166 13.9024 12.7071 14.2929L15 16.5858V10C15 9.44772 15.4477 9 16 9Z" fill="#B5F5EC"/>
<path d="M21.118 22H25V24.5C25 24.7761 24.7761 25 24.5 25H7.5C7.22386 25 7 24.7761 7 24.5V22H10.882L11.6056 23.4472C11.775 23.786 12.1212 24 12.5 24H19.5C19.8788 24 20.225 23.786 20.3944 23.4472L21.118 22Z" fill="#B5F5EC"/>
</svg>
