<svg width="18" height="18" viewBox="0 0 18 18" fill="none" xmlns="http://www.w3.org/2000/svg">
<g clip-path="url(#clip0_206_6)">
<path d="M8.3999 1.8001C8.3999 2.13145 8.66853 2.40011 8.99992 2.40011C9.33126 2.40011 9.59992 2.13149 9.59992 1.8001V0.600127C9.59992 0.268743 9.33126 0.00012207 8.99992 0.00012207C8.66853 0.00012207 8.3999 0.268743 8.3999 0.600127V1.8001Z" fill="#FFD900"/>
<path d="M8.3999 17.4C8.3999 17.7314 8.66853 17.9999 8.99992 17.9999C9.33126 17.9999 9.59992 17.7314 9.59992 17.4V16.2C9.59992 15.8687 9.3313 15.6 8.99992 15.6C8.66853 15.6 8.3999 15.8686 8.3999 16.2V17.4Z" fill="#FFD900"/>
<path d="M16.2 8.3999C15.8687 8.3999 15.6 8.66853 15.6 8.99992C15.6 9.3313 15.8686 9.59992 16.2 9.59992H17.4C17.7314 9.59992 17.9999 9.3313 17.9999 8.99992C17.9999 8.66853 17.7314 8.3999 17.4 8.3999H16.2Z" fill="#FFD900"/>
<path d="M0.600127 8.3999C0.268743 8.3999 0.00012207 8.66853 0.00012207 8.99992C0.00012207 9.3313 0.268743 9.59992 0.600127 9.59992H1.8001C2.13145 9.59992 2.40011 9.3313 2.40011 8.99992C2.40011 8.66853 2.13149 8.3999 1.8001 8.3999H0.600127Z" fill="#FFD900"/>
<path d="M9.00004 14.4C11.9823 14.4 14.4 11.9823 14.4 9.00004C14.4 6.01773 11.9823 3.6001 9.00004 3.6001C6.01773 3.6001 3.6001 6.01773 3.6001 9.00004C3.6001 11.9823 6.01773 14.4 9.00004 14.4Z" fill="#FFD900"/>
<path d="M13.667 3.48423C13.4326 3.71855 13.4326 4.09843 13.667 4.33276C13.9013 4.56709 14.2812 4.56709 14.5155 4.33276L15.364 3.48423C15.5983 3.24991 15.5983 2.87002 15.364 2.63571C15.1297 2.40138 14.7498 2.40138 14.5155 2.63571L13.667 3.48423Z" fill="#FFD900"/>
<path d="M2.63571 14.5155C2.40138 14.7498 2.40138 15.1297 2.63571 15.364C2.87002 15.5983 3.24991 15.5983 3.48423 15.364L4.33276 14.5155C4.56709 14.2812 4.56709 13.9013 4.33276 13.667C4.09843 13.4326 3.71855 13.4326 3.48423 13.667L2.63571 14.5155Z" fill="#FFD900"/>
<path d="M14.5155 13.667C14.2812 13.4326 13.9013 13.4326 13.667 13.667C13.4326 13.9013 13.4326 14.2812 13.667 14.5155L14.5155 15.364C14.7498 15.5983 15.1297 15.5983 15.364 15.364C15.5983 15.1297 15.5983 14.7498 15.364 14.5155L14.5155 13.667Z" fill="#FFD900"/>
<path d="M3.48423 2.63571C3.24991 2.40138 2.87002 2.40138 2.63571 2.63571C2.40138 2.87002 2.40138 3.24991 2.63571 3.48423L3.48423 4.33276C3.71855 4.56709 4.09843 4.56709 4.33276 4.33276C4.56709 4.09843 4.56709 3.71855 4.33276 3.48423L3.48423 2.63571Z" fill="#FFD900"/>
<path d="M8.99999 3.6001C8.85982 3.6001 8.72093 3.60546 8.5835 3.61592C11.3712 3.82856 13.5669 6.15788 13.5669 9.00004C13.5669 11.8422 11.3712 14.1715 8.5835 14.3842C8.72093 14.3946 8.85982 14.4 8.99999 14.4C11.9823 14.4 14.3999 11.9824 14.3999 9.00007C14.3999 6.01775 11.9823 3.6001 8.99999 3.6001Z" fill="#FFBB00"/>
<path d="M1.7999 8.3999H0.966919C1.29827 8.3999 1.56693 8.66853 1.56693 8.99992C1.56693 9.33126 1.29831 9.59992 0.966919 9.59992H1.7999C2.13126 9.59992 2.39992 9.3313 2.39992 8.99992C2.39992 8.66856 2.13126 8.3999 1.7999 8.3999Z" fill="#FFD900"/>
<path d="M17.3998 8.3999H16.5668C16.8982 8.3999 17.1668 8.66853 17.1668 8.99992C17.1668 9.33126 16.8982 9.59992 16.5668 9.59992H17.3998C17.7312 9.59992 17.9998 9.3313 17.9998 8.99992C17.9998 8.66856 17.7312 8.3999 17.3998 8.3999Z" fill="#FFD900"/>
<path d="M8.99999 0.00012207C8.83806 0.00012207 8.69142 0.064552 8.5835 0.168784C8.69645 0.277906 8.767 0.430668 8.767 0.600127V1.8001C8.767 1.96956 8.69645 2.12233 8.5835 2.23141C8.69142 2.33565 8.83806 2.40008 8.99999 2.40008C9.33135 2.40008 9.60001 2.13145 9.60001 1.80006V0.600127C9.60001 0.268743 9.33135 0.00012207 8.99999 0.00012207Z" fill="#FFD900"/>
<path d="M8.99999 15.6C8.83806 15.6 8.69142 15.6644 8.5835 15.7687C8.69645 15.8778 8.767 16.0305 8.767 16.2V17.4C8.767 17.5694 8.69645 17.7222 8.5835 17.8313C8.69142 17.9355 8.83806 17.9998 8.99999 17.9998C9.33135 17.9998 9.60001 17.7313 9.60001 17.3999V16.2C9.60001 15.8686 9.33135 15.6 8.99999 15.6Z" fill="#FFD900"/>
<path d="M15.3635 2.63611C15.1317 2.40428 14.7576 2.40222 14.5228 2.62908C14.5253 2.63154 14.528 2.63361 14.5305 2.63611C14.7648 2.87043 14.7648 3.25031 14.5305 3.48463L13.682 4.33315C13.6795 4.33565 13.6767 4.33772 13.6742 4.34018C13.9091 4.56704 14.2832 4.56498 14.515 4.33315L15.3635 3.48463C15.5978 3.25031 15.5978 2.87043 15.3635 2.63611Z" fill="#FFD900"/>
<path d="M15.3635 14.5153L14.515 13.6668C14.2831 13.4349 13.9091 13.4329 13.6742 13.6597C13.6768 13.6622 13.6795 13.6643 13.682 13.6668L14.5305 14.5153C14.7648 14.7496 14.7648 15.1295 14.5305 15.3638C14.528 15.3663 14.5253 15.3684 14.5228 15.3709C14.7576 15.5978 15.1317 15.5957 15.3635 15.3638C15.5978 15.1295 15.5978 14.7496 15.3635 14.5153Z" fill="#FFD900"/>
<path d="M4.33288 3.48461L3.48436 2.63609C3.25282 2.40455 2.87944 2.40224 2.64453 2.62827C2.64736 2.63098 2.65043 2.6333 2.65319 2.63609L3.50171 3.48461C3.73603 3.71894 3.73603 4.09881 3.50171 4.33313C3.49892 4.33592 3.49588 4.33824 3.49305 4.34096C3.72796 4.56699 4.10139 4.56463 4.33288 4.33313C4.56717 4.09881 4.56717 3.7189 4.33288 3.48461Z" fill="#FFD900"/>
<path d="M4.33288 13.6667C4.10136 13.4352 3.72796 13.4329 3.49305 13.6589C3.49588 13.6616 3.49892 13.6639 3.50171 13.6667C3.73603 13.9011 3.73603 14.2809 3.50171 14.5153L2.65319 15.3638C2.6504 15.3666 2.64736 15.3689 2.64453 15.3716C2.87944 15.5977 3.25286 15.5953 3.48436 15.3638L4.33288 14.5153C4.56717 14.2809 4.56717 13.9011 4.33288 13.6667Z" fill="#FFD900"/>
</g>
<defs>
<clipPath id="clip0_206_6">
<rect width="18" height="18" fill="white"/>
</clipPath>
</defs>
</svg>
