<svg width="24" height="24" viewBox="0 0 24 24" fill="none" xmlns="http://www.w3.org/2000/svg">
<path fill-rule="evenodd" clip-rule="evenodd" d="M3.5 3C3.22386 3 3 3.22386 3 3.5V16H7.5C7.87877 16 8.22504 16.214 8.39443 16.5528L9.11803 18H14.882L15.6056 16.5528C15.775 16.214 16.1212 16 16.5 16H21V3.5C21 3.22386 20.7761 3 20.5 3H3.5ZM23 3.5C23 2.11929 21.8807 1 20.5 1H3.5C2.11929 1 1 2.11929 1 3.5V20.5C1 21.8807 2.11929 23 3.5 23H20.5C21.8807 23 23 21.8807 23 20.5V3.5ZM21 18H17.118L16.3944 19.4472C16.225 19.786 15.8788 20 15.5 20H8.5C8.12123 20 7.77496 19.786 7.60557 19.4472L6.88197 18H3V20.5C3 20.7761 3.22386 21 3.5 21H20.5C20.7761 21 21 20.7761 21 20.5V18ZM12 5C12.5523 5 13 5.44772 13 6V12.5858L15.2929 10.2929C15.6834 9.90237 16.3166 9.90237 16.7071 10.2929C17.0976 10.6834 17.0976 11.3166 16.7071 11.7071L12.7071 15.7071C12.3166 16.0976 11.6834 16.0976 11.2929 15.7071L7.29289 11.7071C6.90237 11.3166 6.90237 10.6834 7.29289 10.2929C7.68342 9.90237 8.31658 9.90237 8.70711 10.2929L11 12.5858V6C11 5.44772 11.4477 5 12 5Z" fill="black" fill-opacity="0.65"/>
</svg>
