<svg width="18" height="18" viewBox="0 0 18 18" fill="none" xmlns="http://www.w3.org/2000/svg">
<circle cx="9" cy="9" r="9" fill="#121A21"/>
<path d="M7.7081 10.2944C5.72506 8.30387 5.1893 5.41106 6.1001 2.9326C6.18849 2.69203 5.9161 2.47812 5.70282 2.62068C5.30502 2.88657 4.92848 3.19788 4.58055 3.5549C1.91045 6.29463 1.94464 10.6998 4.65564 13.3992C7.3751 16.107 11.7665 16.1002 14.4775 13.3789C14.8109 13.0442 15.1032 12.684 15.3547 12.3045C15.4963 12.0908 15.2815 11.8199 15.0409 11.909C12.572 12.8226 9.69079 12.2846 7.7081 10.2944Z" fill="#FFD900"/>
<path d="M15.0409 11.9089C14.538 12.095 14.0181 12.2207 13.4921 12.2864C10.7649 14.6313 6.65908 14.5145 4.06938 11.9359C3.57347 11.4421 3.16756 10.8911 2.85095 10.3038C3.16264 11.44 3.76447 12.5118 4.65564 13.3991C7.3751 16.1069 11.7665 16.1001 14.4775 13.3788C14.8108 13.0441 15.1032 12.6839 15.3547 12.3044C15.4963 12.0907 15.2815 11.8198 15.0409 11.9089Z" fill="#FFBB00"/>
</svg>
