<svg width="15" height="17" viewBox="0 0 15 17" fill="none" xmlns="http://www.w3.org/2000/svg">
<path d="M0.228516 4.91412V4.08904C0.228516 3.49612 0.357101 2.95677 0.614271 2.47101C0.871441 1.98524 1.24648 1.59591 1.73939 1.30303C2.2323 1.01014 2.82522 0.863693 3.51815 0.863693C4.23251 0.863693 4.83258 1.01014 5.31834 1.30303C5.81125 1.59591 6.18629 1.98524 6.44346 2.47101C6.70063 2.95677 6.82922 3.49612 6.82922 4.08904V4.91412C6.82922 5.49276 6.70063 6.02496 6.44346 6.51072C6.19344 6.99649 5.82197 7.38582 5.32906 7.6787C4.84329 7.97159 4.2468 8.11804 3.53958 8.11804C2.83951 8.11804 2.23944 7.97159 1.73939 7.6787C1.24648 7.38582 0.871441 6.99649 0.614271 6.51072C0.357101 6.02496 0.228516 5.49276 0.228516 4.91412ZM2.01799 4.08904V4.91412C2.01799 5.19987 2.07157 5.47133 2.17872 5.7285C2.29302 5.98567 2.46447 6.19283 2.69306 6.34999C2.92166 6.50715 3.20383 6.58573 3.53958 6.58573C3.88248 6.58573 4.16108 6.50715 4.37539 6.34999C4.59684 6.19283 4.76114 5.98567 4.8683 5.7285C4.97545 5.47133 5.02903 5.19987 5.02903 4.91412V4.08904C5.02903 3.79615 4.97188 3.52112 4.85758 3.26395C4.75043 2.99964 4.58612 2.7889 4.36467 2.63174C4.14322 2.47458 3.86105 2.396 3.51815 2.396C3.18955 2.396 2.91094 2.47458 2.68235 2.63174C2.4609 2.7889 2.29302 2.99964 2.17872 3.26395C2.07157 3.52112 2.01799 3.79615 2.01799 4.08904ZM7.75074 13.7008V12.865C7.75074 12.2792 7.87933 11.7434 8.1365 11.2577C8.40081 10.7719 8.77943 10.3826 9.27234 10.0897C9.76525 9.79679 10.3582 9.65034 11.0511 9.65034C11.7655 9.65034 12.3655 9.79679 12.8513 10.0897C13.3442 10.3826 13.7157 10.7719 13.9657 11.2577C14.2229 11.7434 14.3514 12.2792 14.3514 12.865V13.7008C14.3514 14.2865 14.2229 14.8223 13.9657 15.3081C13.7157 15.7939 13.3478 16.1832 12.862 16.4761C12.3762 16.769 11.7833 16.9154 11.0832 16.9154C10.376 16.9154 9.77239 16.769 9.27234 16.4761C8.77943 16.1832 8.40081 15.7939 8.1365 15.3081C7.87933 14.8223 7.75074 14.2865 7.75074 13.7008ZM9.55094 12.865V13.7008C9.55094 13.9865 9.60809 14.258 9.72238 14.5151C9.84383 14.7723 10.0188 14.9831 10.2474 15.1474C10.476 15.3045 10.7511 15.3831 11.0725 15.3831C11.4369 15.3831 11.7297 15.3045 11.9512 15.1474C12.1726 14.9831 12.3298 14.7759 12.4227 14.5259C12.5227 14.2687 12.5727 13.9937 12.5727 13.7008V12.865C12.5727 12.5721 12.5155 12.2971 12.4012 12.0399C12.2941 11.7827 12.1262 11.5755 11.8976 11.4184C11.6762 11.2612 11.394 11.1826 11.0511 11.1826C10.7153 11.1826 10.4367 11.2612 10.2153 11.4184C9.99384 11.5755 9.82597 11.7827 9.71167 12.0399C9.60451 12.2971 9.55094 12.5721 9.55094 12.865ZM11.694 3.31753L4.07535 15.5117L2.75736 14.7509L10.376 2.55673L11.694 3.31753Z" fill="#9F7DE1"/>
</svg>
