<svg width="13" height="13" viewBox="0 0 13 13" fill="none" xmlns="http://www.w3.org/2000/svg">
<path d="M0.892578 6.39147C0.892578 5.35485 1.14818 4.40344 1.65939 3.53722C2.1706 2.671 2.85222 1.98229 3.70423 1.47108C4.57045 0.945665 5.50767 0.682961 6.51589 0.682961C7.53831 0.682961 8.46843 0.945665 9.30625 1.47108C10.1441 1.98229 10.8115 2.671 11.3085 3.53722C11.8197 4.40344 12.0753 5.35485 12.0753 6.39147C12.0753 7.4281 11.8197 8.37952 11.3085 9.24573C10.8115 10.0978 10.1441 10.7723 9.30625 11.2693C8.46843 11.7663 7.53831 12.0148 6.51589 12.0148C5.50767 12.0148 4.57045 11.7663 3.70423 11.2693C2.85222 10.7723 2.1706 10.0978 1.65939 9.24573C1.14818 8.37952 0.892578 7.4281 0.892578 6.39147ZM3.76814 6.39147C3.76814 7.15829 4.03794 7.8044 4.57755 8.32981C5.11716 8.84102 5.76328 9.09663 6.51589 9.09663C7.26851 9.09663 7.90042 8.84102 8.41163 8.32981C8.92284 7.8186 9.17844 7.17249 9.17844 6.39147C9.17844 5.59626 8.92284 4.93595 8.41163 4.41053C7.90042 3.88512 7.26851 3.62242 6.51589 3.62242C5.76328 3.62242 5.11716 3.88512 4.57755 4.41053C4.03794 4.93595 3.76814 5.59626 3.76814 6.39147Z" fill="#9F7DE1"/>
</svg>
